{
  "accessors": [
    {
      "bufferView": 2,
      "componentType": 5126,
      "count": 15787,
      "max": [
        6.616026878356934,
        6.620901584625244,
        9.654376983642578
      ],
      "min": [
        -6.616026878356934,
        -6.620901107788086,
        -7.217764854431152
      ],
      "type": "VEC3"
    },
    {
      "bufferView": 2,
      "byteOffset": 189444,
      "componentType": 5126,
      "count": 15787,
      "max": [
        1.0,
        1.0,
        1.0
      ],
      "min": [
        -1.0,
        -1.0,
        -1.0
      ],
      "type": "VEC3"
    },
    {
      "bufferView": 1,
      "componentType": 5126,
      "count": 15787,
      "max": [
        0.9405864477157593,
        0.9799999594688416
      ],
      "min": [
        0.019999999552965164,
        0.019999999552965164
      ],
      "type": "VEC2"
    },
    {
      "bufferView": 0,
      "componentType": 5125,
      "count": 90624,
      "type": "SCALAR"
    },
    {
      "bufferView": 2,
      "byteOffset": 378888,
      "componentType": 5126,
      "count": 42118,
      "max": [
        1.4675146341323853,
        9.75369644165039,
        2.925658702850342
      ],
      "min": [
        -1.4675145149230957,
        -9.75369644165039,
        0.015856167301535606
      ],
      "type": "VEC3"
    },
    {
      "bufferView": 2,
      "byteOffset": 884304,
      "componentType": 5126,
      "count": 42118,
      "max": [
        0.9999955892562866,
        1.0,
        1.0
      ],
      "min": [
        -0.9999955892562866,
        -1.0,
        -1.0
      ],
      "type": "VEC3"
    },
    {
      "bufferView": 1,
      "byteOffset": 126296,
      "componentType": 5126,
      "count": 42118,
      "max": [
        0.9799999594688416,
        0.6492426991462708
      ],
      "min": [
        0.019999999552965164,
        0.019999999552965164
      ],
      "type": "VEC2"
    },
    {
      "bufferView": 0,
      "byteOffset": 362496,
      "componentType": 5125,
      "count": 245760,
      "type": "SCALAR"
    },
    {
      "bufferView": 2,
      "byteOffset": 1389720,
      "componentType": 5126,
      "count": 65532,
      "max": [
        38.60831832885742,
        0.8043816685676575,
        20.44703483581543
      ],
      "min": [
        -51.654457092285156,
        -0.804381251335144,
        -4.0685811042785645
      ],
      "type": "VEC3"
    },
    {
      "bufferView": 2,
      "byteOffset": 2176104,
      "componentType": 5126,
      "count": 65532,
      "max": [
        1.0,
        1.0,
        1.0
      ],
      "min": [
        -1.0,
        -1.0,
        -0.9998977184295654
      ],
      "type": "VEC3"
    },
    {
      "bufferView": 1,
      "byteOffset": 463240,
      "componentType": 5126,
      "count": 65532,
      "max": [
        0.9799999594688416,
        0.9621482491493225
      ],
      "min": [
        0.019999999552965164,
        0.021305333822965622
      ],
      "type": "VEC2"
    },
    {
      "bufferView": 0,
      "byteOffset": 1345536,
      "componentType": 5125,
      "count": 371565,
      "type": "SCALAR"
    },
    {
      "bufferView": 2,
      "byteOffset": 2962488,
      "componentType": 5126,
      "count": 65532,
      "max": [
        51.56172180175781,
        0.8043814897537231,
        20.44703483581543
      ],
      "min": [
        -51.654457092285156,
        -0.8043810725212097,
        -4.074428558349609
      ],
      "type": "VEC3"
    },
    {
      "bufferView": 2,
      "byteOffset": 3748872,
      "componentType": 5126,
      "count": 65532,
      "max": [
        1.0,
        1.0,
        1.0
      ],
      "min": [
        -1.0,
        -1.0,
        -1.0
      ],
      "type": "VEC3"
    },
    {
      "bufferView": 1,
      "byteOffset": 987496,
      "componentType": 5126,
      "count": 65532,
      "max": [
        0.9799511432647705,
        0.962888777256012
      ],
      "min": [
        0.019999999552965164,
        0.019999999552965164
      ],
      "type": "VEC2"
    },
    {
      "bufferView": 0,
      "byteOffset": 2831796,
      "componentType": 5125,
      "count": 371283,
      "type": "SCALAR"
    },
    {
      "bufferView": 2,
      "byteOffset": 4535256,
      "componentType": 5126,
      "count": 10954,
      "max": [
        51.54730987548828,
        0.8043808341026306,
        20.44703483581543
      ],
      "min": [
        -49.46906661987305,
        -0.8043809533119202,
        -2.5258615016937256
      ],
      "type": "VEC3"
    },
    {
      "bufferView": 2,
      "byteOffset": 4666704,
      "componentType": 5126,
      "count": 10954,
      "max": [
        1.0,
        1.0,
        1.0
      ],
      "min": [
        -1.0,
        -1.0,
        -0.9886522889137268
      ],
      "type": "VEC3"
    },
    {
      "bufferView": 1,
      "byteOffset": 1511752,
      "componentType": 5126,
      "count": 10954,
      "max": [
        0.8891637921333313,
        0.9732157588005066
      ],
      "min": [
        0.020315835252404213,
        0.033481575548648834
      ],
      "type": "VEC2"
    },
    {
      "bufferView": 0,
      "byteOffset": 4316928,
      "componentType": 5125,
      "count": 58944,
      "type": "SCALAR"
    },
    {
      "bufferView": 2,
      "byteOffset": 4798152,
      "componentType": 5126,
      "count": 25431,
      "max": [
        14.415105819702148,
        5.5655412673950195,
        87.64348602294922
      ],
      "min": [
        -14.415094375610352,
        -5.5655412673950195,
        -5.995880769660289e-08
      ],
      "type": "VEC3"
    },
    {
      "bufferView": 2,
      "byteOffset": 5103324,
      "componentType": 5126,
      "count": 25431,
      "max": [
        1.0,
        1.0,
        1.0
      ],
      "min": [
        -1.0,
        -1.0,
        -1.0
      ],
      "type": "VEC3"
    },
    {
      "bufferView": 1,
      "byteOffset": 1599384,
      "componentType": 5126,
      "count": 25431,
      "max": [
        0.9881904721260071,
        0.95108962059021
      ],
      "min": [
        0.019999999552965164,
        0.019999999552965164
      ],
      "type": "VEC2"
    },
    {
      "bufferView": 0,
      "byteOffset": 4552704,
      "componentType": 5125,
      "count": 145152,
      "type": "SCALAR"
    }
  ],
  "asset": {
    "extras": {
      "author": "Davy Chang (https://sketchfab.com/davy.chang.fr)",
      "license": "CC-BY-4.0 (http://creativecommons.org/licenses/by/4.0/)",
      "source": "https://sketchfab.com/3d-models/survival-knife-king-1-hr-e0f3228725d447a5abdc16cc8008bb33",
      "title": "Survival Knife King 1 (HR)"
    },
    "generator": "Sketchfab-12.66.0",
    "version": "2.0"
  },
  "bufferViews": [
    {
      "buffer": 0,
      "byteLength": 5133312,
      "name": "floatBufferViews",
      "target": 34963
    },
    {
      "buffer": 0,
      "byteLength": 1802832,
      "byteOffset": 5133312,
      "byteStride": 8,
      "name": "floatBufferViews",
      "target": 34962
    },
    {
      "buffer": 0,
      "byteLength": 5408496,
      "byteOffset": 6936144,
      "byteStride": 12,
      "name": "floatBufferViews",
      "target": 34962
    }
  ],
  "buffers": [
    {
      "byteLength": 12344640,
      "uri": "scene.bin"
    }
  ],
  "images": [
    {
      "uri": "textures/Bouchon_baseColor.png"
    },
    {
      "uri": "textures/Bouchon_metallicRoughness.png"
    },
    {
      "uri": "textures/Tige_baseColor.png"
    },
    {
      "uri": "textures/Tige_metallicRoughness.png"
    },
    {
      "uri": "textures/Lame_baseColor.png"
    },
    {
      "uri": "textures/Lame_metallicRoughness.png"
    },
    {
      "uri": "textures/Manche_baseColor.png"
    },
    {
      "uri": "textures/Manche_metallicRoughness.png"
    }
  ],
  "materials": [
    {
      "doubleSided": true,
      "name": "Bouchon",
      "pbrMetallicRoughness": {
        "baseColorTexture": {
          "index": 0
        },
        "metallicRoughnessTexture": {
          "index": 1
        }
      }
    },
    {
      "doubleSided": true,
      "name": "Tige",
      "pbrMetallicRoughness": {
        "baseColorTexture": {
          "index": 2
        },
        "metallicRoughnessTexture": {
          "index": 3
        }
      }
    },
    {
      "doubleSided": true,
      "name": "Lame",
      "pbrMetallicRoughness": {
        "baseColorTexture": {
          "index": 4
        },
        "metallicRoughnessTexture": {
          "index": 5
        }
      }
    },
    {
      "doubleSided": true,
      "name": "Manche",
      "pbrMetallicRoughness": {
        "baseColorTexture": {
          "index": 6
        },
        "metallicRoughnessTexture": {
          "index": 7
        },
        "roughnessFactor": 0.7502096883905759
      }
    }
  ],
  "meshes": [
    {
      "name": "Bouchon002_Bouchon_0",
      "primitives": [
        {
          "attributes": {
            "NORMAL": 1,
            "POSITION": 0,
            "TEXCOORD_0": 2
          },
          "indices": 3,
          "material": 0,
          "mode": 4
        }
      ]
    },
    {
      "name": "Tige002_Tige_0",
      "primitives": [
        {
          "attributes": {
            "NORMAL": 5,
            "POSITION": 4,
            "TEXCOORD_0": 6
          },
          "indices": 7,
          "material": 1,
          "mode": 4
        }
      ]
    },
    {
      "name": "Lame002_Lame_0",
      "primitives": [
        {
          "attributes": {
            "NORMAL": 9,
            "POSITION": 8,
            "TEXCOORD_0": 10
          },
          "indices": 11,
          "material": 2,
          "mode": 4
        }
      ]
    },
    {
      "name": "Lame002_Lame_0",
      "primitives": [
        {
          "attributes": {
            "NORMAL": 13,
            "POSITION": 12,
            "TEXCOORD_0": 14
          },
          "indices": 15,
          "material": 2,
          "mode": 4
        }
      ]
    },
    {
      "name": "Lame002_Lame_0",
      "primitives": [
        {
          "attributes": {
            "NORMAL": 17,
            "POSITION": 16,
            "TEXCOORD_0": 18
          },
          "indices": 19,
          "material": 2,
          "mode": 4
        }
      ]
    },
    {
      "name": "Manche002_Manche_0",
      "primitives": [
        {
          "attributes": {
            "NORMAL": 21,
            "POSITION": 20,
            "TEXCOORD_0": 22
          },
          "indices": 23,
          "material": 3,
          "mode": 4
        }
      ]
    }
  ],
  "nodes": [
    {
      "children": [
        1
      ],
      "matrix": [
        1.0,
        0.0,
        0.0,
        0.0,
        0.0,
        2.220446049250313e-16,
        -1.0,
        0.0,
        0.0,
        1.0,
        2.220446049250313e-16,
        0.0,
        0.0,
        0.0,
        0.0,
        1.0
      ],
      "name": "Sketchfab_model"
    },
    {
      "children": [
        2
      ],
      "matrix": [
        1.0,
        0.0,
        0.0,
        0.0,
        0.0,
        0.0,
        1.0,
        0.0,
        0.0,
        -1.0,
        0.0,
        0.0,
        0.0,
        0.0,
        0.0,
        1.0
      ],
      "name": "75cafaa7ff4043da862793d415d725e2.fbx"
    },
    {
      "children": [
        3
      ],
      "name": "RootNode"
    },
    {
      "children": [
        4,
        7,
        9,
        14
      ],
      "matrix": [
        1.0,
        0.0,
        0.0,
        0.0,
        0.0,
        2.220446049250313e-16,
        -1.0,
        0.0,
        0.0,
        1.0,
        2.220446049250313e-16,
        0.0,
        -9.701061248779297,
        25.59992218017578,
        2.0677385330200195,
        1.0
      ],
      "name": "Couteau002"
    },
    {
      "children": [
        5
      ],
      "matrix": [
        2.5846310339118865e-07,
        -2.587993172703636e-55,
        1.5864351987838536,
        0.0,
        3.045829133070428e-39,
        1.5864351987838745,
        -4.9622855731479776e-46,
        0.0,
        -0.7653275728225607,
        1.4693679385278594e-39,
        1.2468768956601788e-07,
        0.0,
        87.10195922851563,
        0.0,
        -0.003360748291015625,
        1.0
      ],
      "name": "Bouchon002"
    },
    {
      "children": [
        6
      ],
      "matrix": [
        1.0,
        0.0,
        -0.0,
        0.0,
        0.0,
        1.0,
        0.0,
        0.0,
        0.0,
        0.0,
        1.0,
        0.0,
        -2.569071710922799e-08,
        -3.005714575010643e-07,
        -1.218306541442871,
        1.0
      ],
      "name": "Object_5"
    },
    {
      "mesh": 0,
      "name": "Bouchon002_Bouchon_0"
    },
    {
      "children": [
        8
      ],
      "matrix": [
        1.0003948211669922,
        0.0,
        0.0,
        0.0,
        0.0,
        0.9019834995269775,
        0.0,
        0.0,
        0.0,
        0.0,
        1.0003948211669922,
        0.0,
        30.463417053222656,
        0.12576532363891602,
        -1.4454841613769531,
        1.0
      ],
      "name": "Tige002"
    },
    {
      "mesh": 1,
      "name": "Tige002_Tige_0"
    },
    {
      "children": [
        10
      ],
      "matrix": [
        1.1710176467895508,
        0.0,
        0.0,
        0.0,
        0.0,
        2.33245587348938,
        0.0,
        0.0,
        0.0,
        0.0,
        1.0267077684402466,
        0.0,
        -33.124332427978516,
        0.03372383117675781,
        -1.3342094421386719,
        1.0
      ],
      "name": "Lame002"
    },
    {
      "children": [
        11,
        12,
        13
      ],
      "matrix": [
        1.0,
        0.0,
        -0.0,
        0.0,
        0.0,
        1.0,
        0.0,
        0.0,
        0.0,
        0.0,
        1.0,
        0.0,
        0.0463685542345047,
        -2.044356506303302e-07,
        -8.18630313873291,
        1.0
      ],
      "name": "Object_10"
    },
    {
      "mesh": 2,
      "name": "Lame002_Lame_0"
    },
    {
      "mesh": 3,
      "name": "Lame002_Lame_0"
    },
    {
      "mesh": 4,
      "name": "Lame002_Lame_0"
    },
    {
      "children": [
        15
      ],
      "matrix": [
        2.5846310339118865e-07,
        -2.587993172703636e-55,
        1.5864351987838536,
        0.0,
        3.045829133070428e-39,
        1.5864351987838745,
        -4.9622855731479776e-46,
        0.0,
        -0.7653275728225607,
        1.4693679385278594e-39,
        1.2468768956601788e-07,
        0.0,
        54.39912796020508,
        -3.337860107421875e-06,
        3.814697265625e-06,
        1.0
      ],
      "name": "Manche002"
    },
    {
      "children": [
        16
      ],
      "matrix": [
        1.0,
        0.0,
        -0.0,
        0.0,
        0.0,
        1.0,
        0.0,
        0.0,
        0.0,
        0.0,
        1.0,
        0.0,
        -5.848791261087172e-06,
        0.0,
        -43.821739196777344,
        1.0
      ],
      "name": "Object_15"
    },
    {
      "mesh": 5,
      "name": "Manche002_Manche_0"
    }
  ],
  "samplers": [
    {
      "magFilter": 9729,
      "minFilter": 9987,
      "wrapS": 10497,
      "wrapT": 10497
    }
  ],
  "scene": 0,
  "scenes": [
    {
      "name": "Sketchfab_Scene",
      "nodes": [
        0
      ]
    }
  ],
  "textures": [
    {
      "sampler": 0,
      "source": 0
    },
    {
      "sampler": 0,
      "source": 1
    },
    {
      "sampler": 0,
      "source": 2
    },
    {
      "sampler": 0,
      "source": 3
    },
    {
      "sampler": 0,
      "source": 4
    },
    {
      "sampler": 0,
      "source": 5
    },
    {
      "sampler": 0,
      "source": 6
    },
    {
      "sampler": 0,
      "source": 7
    }
  ]
}
