{
  "accessors": [
    {
      "bufferView": 2,
      "componentType": 5126,
      "count": 65532,
      "max": [
        473.2735290527344,
        530.8627319335938,
        409.5999450683594
      ],
      "min": [
        -349.57867431640625,
        -467.6278991699219,
        -423.087646484375
      ],
      "type": "VEC3"
    },
    {
      "bufferView": 2,
      "byteOffset": 786384,
      "componentType": 5126,
      "count": 65532,
      "max": [
        0.9999954104423523,
        0.9999619722366333,
        0.9999814033508301
      ],
      "min": [
        -0.9999962449073792,
        -0.9969450831413269,
        -0.9999902844429016
      ],
      "type": "VEC3"
    },
    {
      "bufferView": 1,
      "componentType": 5126,
      "count": 65532,
      "max": [
        0.9994022250175476,
        0.9997481107711792
      ],
      "min": [
        0.0005114253144711256,
        0.0004882216453552246
      ],
      "type": "VEC2"
    },
    {
      "bufferView": 0,
      "componentType": 5125,
      "count": 290826,
      "type": "SCALAR"
    },
    {
      "bufferView": 2,
      "byteOffset": 1572768,
      "componentType": 5126,
      "count": 65532,
      "max": [
        473.11822509765625,
        531.5165405273438,
        412.7846984863281
      ],
      "min": [
        -355.4832763671875,
        -467.59173583984375,
        -408.5701904296875
      ],
      "type": "VEC3"
    },
    {
      "bufferView": 2,
      "byteOffset": 2359152,
      "componentType": 5126,
      "count": 65532,
      "max": [
        0.9999898672103882,
        0.9999899864196777,
        0.9999971389770508
      ],
      "min": [
        -0.9999975562095642,
        -0.9981284737586975,
        -0.9999849200248718
      ],
      "type": "VEC3"
    },
    {
      "bufferView": 1,
      "byteOffset": 524256,
      "componentType": 5126,
      "count": 65532,
      "max": [
        0.9985278248786926,
        0.999735414981842
      ],
      "min": [
        0.00021696239127777517,
        0.0003955960273742676
      ],
      "type": "VEC2"
    },
    {
      "bufferView": 0,
      "byteOffset": 1163304,
      "componentType": 5125,
      "count": 280326,
      "type": "SCALAR"
    },
    {
      "bufferView": 2,
      "byteOffset": 3145536,
      "componentType": 5126,
      "count": 65532,
      "max": [
        472.9107971191406,
        530.8892822265625,
        422.9807434082031
      ],
      "min": [
        -355.48089599609375,
        -467.4963073730469,
        -421.0921630859375
      ],
      "type": "VEC3"
    },
    {
      "bufferView": 2,
      "byteOffset": 3931920,
      "componentType": 5126,
      "count": 65532,
      "max": [
        0.9999964237213135,
        0.9999943375587463,
        0.9999963045120239
      ],
      "min": [
        -0.9999808669090271,
        -0.9989127516746521,
        -0.9999915957450867
      ],
      "type": "VEC3"
    },
    {
      "bufferView": 1,
      "byteOffset": 1048512,
      "componentType": 5126,
      "count": 65532,
      "max": [
        0.999681830406189,
        0.9997701644897461
      ],
      "min": [
        0.00021780922543257475,
        0.0004156827926635742
      ],
      "type": "VEC2"
    },
    {
      "bufferView": 0,
      "byteOffset": 2284608,
      "componentType": 5125,
      "count": 279696,
      "type": "SCALAR"
    },
    {
      "bufferView": 2,
      "byteOffset": 4718304,
      "componentType": 5126,
      "count": 65532,
      "max": [
        472.041748046875,
        530.9533081054688,
        423.681640625
      ],
      "min": [
        -355.4832763671875,
        -468.31011962890625,
        -422.8028259277344
      ],
      "type": "VEC3"
    },
    {
      "bufferView": 2,
      "byteOffset": 5504688,
      "componentType": 5126,
      "count": 65532,
      "max": [
        0.9999954104423523,
        0.9999899864196777,
        0.9999993443489075
      ],
      "min": [
        -0.9999994039535522,
        -0.9997448325157166,
        -0.9999752640724182
      ],
      "type": "VEC3"
    },
    {
      "bufferView": 1,
      "byteOffset": 1572768,
      "componentType": 5126,
      "count": 65532,
      "max": [
        0.9997521042823792,
        0.9997832775115967
      ],
      "min": [
        0.00022077177709434181,
        0.00048553943634033203
      ],
      "type": "VEC2"
    },
    {
      "bufferView": 0,
      "byteOffset": 3403392,
      "componentType": 5125,
      "count": 209616,
      "type": "SCALAR"
    },
    {
      "bufferView": 2,
      "byteOffset": 6291072,
      "componentType": 5126,
      "count": 65533,
      "max": [
        473.2735290527344,
        530.8577270507813,
        423.681640625
      ],
      "min": [
        -355.78228759765625,
        -468.4834899902344,
        -419.62176513671875
      ],
      "type": "VEC3"
    },
    {
      "bufferView": 2,
      "byteOffset": 7077468,
      "componentType": 5126,
      "count": 65533,
      "max": [
        0.9999964237213135,
        0.9999943375587463,
        0.9999839067459106
      ],
      "min": [
        -0.9999994039535522,
        -0.999958336353302,
        -0.9999902844429016
      ],
      "type": "VEC3"
    },
    {
      "bufferView": 1,
      "byteOffset": 2097024,
      "componentType": 5126,
      "count": 65533,
      "max": [
        0.9997825026512146,
        0.9997825622558594
      ],
      "min": [
        0.00021628332615364343,
        0.0004068613052368164
      ],
      "type": "VEC2"
    },
    {
      "bufferView": 0,
      "byteOffset": 4241856,
      "componentType": 5125,
      "count": 120771,
      "type": "SCALAR"
    },
    {
      "bufferView": 2,
      "byteOffset": 7863864,
      "componentType": 5126,
      "count": 10896,
      "max": [
        473.2196350097656,
        530.9533081054688,
        422.9807434082031
      ],
      "min": [
        -352.45379638671875,
        -468.14996337890625,
        -417.56695556640625
      ],
      "type": "VEC3"
    },
    {
      "bufferView": 2,
      "byteOffset": 7994616,
      "componentType": 5126,
      "count": 10896,
      "max": [
        0.9996992945671082,
        0.9999586939811707,
        0.9999008774757385
      ],
      "min": [
        -0.9999994039535522,
        -0.9982268214225769,
        -0.9999902844429016
      ],
      "type": "VEC3"
    },
    {
      "bufferView": 1,
      "byteOffset": 2621288,
      "componentType": 5126,
      "count": 10896,
      "max": [
        0.9986337423324585,
        0.9997828602790833
      ],
      "min": [
        0.00023282214533537626,
        0.0007181763648986816
      ],
      "type": "VEC2"
    },
    {
      "bufferView": 0,
      "byteOffset": 4724940,
      "componentType": 5125,
      "count": 12090,
      "type": "SCALAR"
    }
  ],
  "asset": {
    "extras": {
      "author": "ஜCIHIRISஜ (https://sketchfab.com/crazy4creativity)",
      "license": "CC-BY-4.0 (http://creativecommons.org/licenses/by/4.0/)",
      "source": "https://sketchfab.com/3d-models/professional-photo-backpack-96b001c475bd4659bba845f5a131afcf",
      "title": "Professional Photo Backpack"
    },
    "generator": "Sketchfab-12.67.0",
    "version": "2.0"
  },
  "bufferViews": [
    {
      "buffer": 0,
      "byteLength": 4773300,
      "name": "floatBufferViews",
      "target": 34963
    },
    {
      "buffer": 0,
      "byteLength": 2708456,
      "byteOffset": 4773300,
      "byteStride": 8,
      "name": "floatBufferViews",
      "target": 34962
    },
    {
      "buffer": 0,
      "byteLength": 8125368,
      "byteOffset": 7481756,
      "byteStride": 12,
      "name": "floatBufferViews",
      "target": 34962
    }
  ],
  "buffers": [
    {
      "byteLength": 15607124,
      "uri": "scene.bin"
    }
  ],
  "images": [
    {
      "uri": "textures/Material0_baseColor.jpeg"
    }
  ],
  "materials": [
    {
      "doubleSided": true,
      "name": "Material0",
      "pbrMetallicRoughness": {
        "baseColorTexture": {
          "index": 0
        },
        "metallicFactor": 0.0
      }
    }
  ],
  "meshes": [
    {
      "name": "Stereo textured mesh_Material0_0",
      "primitives": [
        {
          "attributes": {
            "NORMAL": 1,
            "POSITION": 0,
            "TEXCOORD_0": 2
          },
          "indices": 3,
          "material": 0,
          "mode": 4
        }
      ]
    },
    {
      "name": "Stereo textured mesh_Material0_0",
      "primitives": [
        {
          "attributes": {
            "NORMAL": 5,
            "POSITION": 4,
            "TEXCOORD_0": 6
          },
          "indices": 7,
          "material": 0,
          "mode": 4
        }
      ]
    },
    {
      "name": "Stereo textured mesh_Material0_0",
      "primitives": [
        {
          "attributes": {
            "NORMAL": 9,
            "POSITION": 8,
            "TEXCOORD_0": 10
          },
          "indices": 11,
          "material": 0,
          "mode": 4
        }
      ]
    },
    {
      "name": "Stereo textured mesh_Material0_0",
      "primitives": [
        {
          "attributes": {
            "NORMAL": 13,
            "POSITION": 12,
            "TEXCOORD_0": 14
          },
          "indices": 15,
          "material": 0,
          "mode": 4
        }
      ]
    },
    {
      "name": "Stereo textured mesh_Material0_0",
      "primitives": [
        {
          "attributes": {
            "NORMAL": 17,
            "POSITION": 16,
            "TEXCOORD_0": 18
          },
          "indices": 19,
          "material": 0,
          "mode": 4
        }
      ]
    },
    {
      "name": "Stereo textured mesh_Material0_0",
      "primitives": [
        {
          "attributes": {
            "NORMAL": 21,
            "POSITION": 20,
            "TEXCOORD_0": 22
          },
          "indices": 23,
          "material": 0,
          "mode": 4
        }
      ]
    }
  ],
  "nodes": [
    {
      "children": [
        1
      ],
      "matrix": [
        -0.5268245339393616,
        -0.004286477807909061,
        -0.8499632477760315,
        0.0,
        -0.0010566964047029614,
        -0.9999831914901733,
        0.005698010325431602,
        0.0,
        -0.8499734401702881,
        0.0039000045508145115,
        0.5268111228942871,
        0.0,
        71.0587387084961,
        -38.18720626831057,
        92.15385437011717,
        1.0
      ],
      "name": "Sketchfab_model"
    },
    {
      "children": [
        2
      ],
      "matrix": [
        1.0,
        0.0,
        0.0,
        0.0,
        0.0,
        -1.0,
        0.0,
        0.0,
        0.0,
        0.0,
        -1.0,
        0.0,
        0.0,
        0.0,
        0.0,
        1.0
      ],
      "name": "sketchfabTemp.obj.fbx"
    },
    {
      "children": [
        3
      ],
      "name": "RootNode"
    },
    {
      "children": [
        4,
        5,
        6,
        7,
        8,
        9
      ],
      "name": "Stereo textured mesh"
    },
    {
      "mesh": 0,
      "name": "Stereo textured mesh_Material0_0"
    },
    {
      "mesh": 1,
      "name": "Stereo textured mesh_Material0_0"
    },
    {
      "mesh": 2,
      "name": "Stereo textured mesh_Material0_0"
    },
    {
      "mesh": 3,
      "name": "Stereo textured mesh_Material0_0"
    },
    {
      "mesh": 4,
      "name": "Stereo textured mesh_Material0_0"
    },
    {
      "mesh": 5,
      "name": "Stereo textured mesh_Material0_0"
    }
  ],
  "samplers": [
    {
      "magFilter": 9729,
      "minFilter": 9987,
      "wrapS": 10497,
      "wrapT": 10497
    }
  ],
  "scene": 0,
  "scenes": [
    {
      "name": "Sketchfab_Scene",
      "nodes": [
        0
      ]
    }
  ],
  "textures": [
    {
      "sampler": 0,
      "source": 0
    }
  ]
}
