{
  "accessors": [
    {
      "bufferView": 2,
      "componentType": 5126,
      "count": 19457,
      "max": [
        0.27334636449813843,
        0.33197325468063354,
        0.38243818283081055
      ],
      "min": [
        -0.24762886762619019,
        -0.2428467571735382,
        -0.4280257821083069
      ],
      "type": "VEC3"
    },
    {
      "bufferView": 2,
      "byteOffset": 233484,
      "componentType": 5126,
      "count": 19457,
      "max": [
        0.9999993443489075,
        0.9999645352363586,
        0.9999786019325256
      ],
      "min": [
        -0.9999325275421143,
        -0.9999786019325256,
        -0.999942421913147
      ],
      "type": "VEC3"
    },
    {
      "bufferView": 3,
      "componentType": 5126,
      "count": 19457,
      "max": [
        1.0,
        0.9999743103981018,
        1.0,
        1.0
      ],
      "min": [
        -1.0,
        -0.9999986886978149,
        -1.0,
        -1.0
      ],
      "type": "VEC4"
    },
    {
      "bufferView": 1,
      "componentType": 5126,
      "count": 19457,
      "max": [
        0.9990013241767883,
        0.9988962411880493
      ],
      "min": [
        0.0009994417196139693,
        0.0009950341191142797
      ],
      "type": "VEC2"
    },
    {
      "bufferView": 1,
      "byteOffset": 155656,
      "componentType": 5126,
      "count": 19457,
      "max": [
        0.9990013241767883,
        0.9988962411880493
      ],
      "min": [
        0.0009994417196139693,
        0.0009950341191142797
      ],
      "type": "VEC2"
    },
    {
      "bufferView": 1,
      "byteOffset": 311312,
      "componentType": 5126,
      "count": 19457,
      "max": [
        0.9990013241767883,
        0.9988962411880493
      ],
      "min": [
        0.0009994417196139693,
        0.0009950341191142797
      ],
      "type": "VEC2"
    },
    {
      "bufferView": 0,
      "componentType": 5125,
      "count": 87024,
      "type": "SCALAR"
    }
  ],
  "asset": {
    "extras": {
      "author": "Rigdhi (https://sketchfab.com/Rigdhi)",
      "license": "CC-BY-NC-4.0 (http://creativecommons.org/licenses/by-nc/4.0/)",
      "source": "https://sketchfab.com/3d-models/old-backpack-renewed-hope-d1a73335a05744a291fe6c54e8c67eec",
      "title": "Old Backpack ( Renewed Hope)"
    },
    "generator": "Sketchfab-15.29.0",
    "version": "2.0"
  },
  "bufferViews": [
    {
      "buffer": 0,
      "byteLength": 348096,
      "name": "floatBufferViews",
      "target": 34963
    },
    {
      "buffer": 0,
      "byteLength": 466968,
      "byteOffset": 348096,
      "byteStride": 8,
      "name": "floatBufferViews",
      "target": 34962
    },
    {
      "buffer": 0,
      "byteLength": 466968,
      "byteOffset": 815064,
      "byteStride": 12,
      "name": "floatBufferViews",
      "target": 34962
    },
    {
      "buffer": 0,
      "byteLength": 311312,
      "byteOffset": 1282032,
      "byteStride": 16,
      "name": "floatBufferViews",
      "target": 34962
    }
  ],
  "buffers": [
    {
      "byteLength": 1593344,
      "uri": "scene.bin"
    }
  ],
  "images": [
    {
      "uri": "textures/TT_checker_4096x4096_UV_GRID_baseColor.png"
    },
    {
      "uri": "textures/TT_checker_4096x4096_UV_GRID_metallicRoughness.png"
    },
    {
      "uri": "textures/TT_checker_4096x4096_UV_GRID_normal.png"
    }
  ],
  "materials": [
    {
      "doubleSided": true,
      "name": "TT_checker_4096x4096_UV_GRID",
      "normalTexture": {
        "index": 2
      },
      "occlusionTexture": {
        "index": 1,
        "strength": 0.0
      },
      "pbrMetallicRoughness": {
        "baseColorTexture": {
          "index": 0
        },
        "metallicRoughnessTexture": {
          "index": 1
        }
      }
    }
  ],
  "meshes": [
    {
      "name": "bag_main_lp_TT_checker_4096x4096_UV_GRID_0",
      "primitives": [
        {
          "attributes": {
            "NORMAL": 1,
            "POSITION": 0,
            "TANGENT": 2,
            "TEXCOORD_0": 3,
            "TEXCOORD_1": 4,
            "TEXCOORD_2": 5
          },
          "indices": 6,
          "material": 0,
          "mode": 4
        }
      ]
    }
  ],
  "nodes": [
    {
      "children": [
        1
      ],
      "matrix": [
        1.0,
        0.0,
        0.0,
        0.0,
        0.0,
        2.220446049250313e-16,
        -1.0,
        0.0,
        0.0,
        1.0,
        2.220446049250313e-16,
        0.0,
        0.0,
        0.0,
        0.0,
        1.0
      ],
      "name": "Sketchfab_model"
    },
    {
      "children": [
        2
      ],
      "matrix": [
        0.009999999776482582,
        0.0,
        0.0,
        0.0,
        0.0,
        0.0,
        0.009999999776482582,
        0.0,
        0.0,
        -0.009999999776482582,
        0.0,
        0.0,
        0.0,
        0.0,
        0.0,
        1.0
      ],
      "name": "02548b973a994faa94819affcea9bec7.fbx"
    },
    {
      "children": [
        3
      ],
      "name": "RootNode"
    },
    {
      "children": [
        4
      ],
      "matrix": [
        100.0,
        0.0,
        0.0,
        0.0,
        0.0,
        -1.629206793918314e-05,
        -99.99999999999868,
        0.0,
        0.0,
        99.99999999999868,
        -1.629206793918314e-05,
        0.0,
        0.0,
        0.0,
        0.0,
        1.0
      ],
      "name": "bag_main_lp"
    },
    {
      "mesh": 0,
      "name": "bag_main_lp_TT_checker_4096x4096_UV_GRID_0"
    }
  ],
  "samplers": [
    {
      "magFilter": 9729,
      "minFilter": 9987,
      "wrapS": 10497,
      "wrapT": 10497
    }
  ],
  "scene": 0,
  "scenes": [
    {
      "name": "Sketchfab_Scene",
      "nodes": [
        0
      ]
    }
  ],
  "textures": [
    {
      "sampler": 0,
      "source": 0
    },
    {
      "sampler": 0,
      "source": 1
    },
    {
      "sampler": 0,
      "source": 2
    }
  ]
}
