{
  "accessors": [
    {
      "bufferView": 2,
      "componentType": 5126,
      "count": 2155,
      "max": [
        47.96039581298828,
        6.641839981079102,
        59.556270599365234
      ],
      "min": [
        -48.26739501953125,
        -70.18511199951172,
        -67.79381561279297
      ],
      "type": "VEC3"
    },
    {
      "bufferView": 2,
      "byteOffset": 25860,
      "componentType": 5126,
      "count": 2155,
      "max": [
        0.9993456602096558,
        0.9999637007713318,
        0.9993904829025269
      ],
      "min": [
        -0.9999863505363464,
        -0.9999823570251465,
        -0.9969016313552856
      ],
      "type": "VEC3"
    },
    {
      "bufferView": 3,
      "componentType": 5126,
      "count": 2155,
      "max": [
        0.9981551170349121,
        0.9999837875366211,
        0.9999942183494568,
        1.0
      ],
      "min": [
        -0.9999924302101135,
        -0.9999909996986389,
        -0.9996864199638367,
        1.0
      ],
      "type": "VEC4"
    },
    {
      "bufferView": 1,
      "componentType": 5126,
      "count": 2155,
      "max": [
        0.9999055862426758,
        0.9990757703781128
      ],
      "min": [
        0.0006906035705469549,
        0.001897379755973816
      ],
      "type": "VEC2"
    },
    {
      "bufferView": 1,
      "byteOffset": 17240,
      "componentType": 5126,
      "count": 2155,
      "max": [
        0.9999055862426758,
        0.9990757703781128
      ],
      "min": [
        0.0006906035705469549,
        0.001897379755973816
      ],
      "type": "VEC2"
    },
    {
      "bufferView": 1,
      "byteOffset": 34480,
      "componentType": 5126,
      "count": 2155,
      "max": [
        0.9999055862426758,
        0.9990757703781128
      ],
      "min": [
        0.0006906035705469549,
        0.001897379755973816
      ],
      "type": "VEC2"
    },
    {
      "bufferView": 1,
      "byteOffset": 51720,
      "componentType": 5126,
      "count": 2155,
      "max": [
        0.9999055862426758,
        0.9990757703781128
      ],
      "min": [
        0.0006906035705469549,
        0.001897379755973816
      ],
      "type": "VEC2"
    },
    {
      "bufferView": 1,
      "byteOffset": 68960,
      "componentType": 5126,
      "count": 2155,
      "max": [
        0.9999055862426758,
        0.9990757703781128
      ],
      "min": [
        0.0006906035705469549,
        0.001897379755973816
      ],
      "type": "VEC2"
    },
    {
      "bufferView": 1,
      "byteOffset": 86200,
      "componentType": 5126,
      "count": 2155,
      "max": [
        0.9999055862426758,
        0.9990757703781128
      ],
      "min": [
        0.0006906035705469549,
        0.001897379755973816
      ],
      "type": "VEC2"
    },
    {
      "bufferView": 1,
      "byteOffset": 103440,
      "componentType": 5126,
      "count": 2155,
      "max": [
        0.9999055862426758,
        0.9990757703781128
      ],
      "min": [
        0.0006906035705469549,
        0.001897379755973816
      ],
      "type": "VEC2"
    },
    {
      "bufferView": 1,
      "byteOffset": 120680,
      "componentType": 5126,
      "count": 2155,
      "max": [
        0.9999055862426758,
        0.9990757703781128
      ],
      "min": [
        0.0006906035705469549,
        0.001897379755973816
      ],
      "type": "VEC2"
    },
    {
      "bufferView": 1,
      "byteOffset": 137920,
      "componentType": 5126,
      "count": 2155,
      "max": [
        0.9999055862426758,
        0.9990757703781128
      ],
      "min": [
        0.0006906035705469549,
        0.001897379755973816
      ],
      "type": "VEC2"
    },
    {
      "bufferView": 1,
      "byteOffset": 155160,
      "componentType": 5126,
      "count": 2155,
      "max": [
        0.9999055862426758,
        0.9990757703781128
      ],
      "min": [
        0.0006906035705469549,
        0.001897379755973816
      ],
      "type": "VEC2"
    },
    {
      "bufferView": 0,
      "componentType": 5125,
      "count": 8970,
      "type": "SCALAR"
    }
  ],
  "asset": {
    "extras": {
      "author": "Thunder (https://sketchfab.com/thunderpwn)",
      "license": "CC-BY-4.0 (http://creativecommons.org/licenses/by/4.0/)",
      "source": "https://sketchfab.com/3d-models/survival-backpack-5b3096461e3646d18b231c614018c358",
      "title": "Survival Backpack"
    },
    "generator": "Sketchfab-16.7.0",
    "version": "2.0"
  },
  "bufferViews": [
    {
      "buffer": 0,
      "byteLength": 35880,
      "name": "floatBufferViews",
      "target": 34963
    },
    {
      "buffer": 0,
      "byteLength": 172400,
      "byteOffset": 35880,
      "byteStride": 8,
      "name": "floatBufferViews",
      "target": 34962
    },
    {
      "buffer": 0,
      "byteLength": 51720,
      "byteOffset": 208280,
      "byteStride": 12,
      "name": "floatBufferViews",
      "target": 34962
    },
    {
      "buffer": 0,
      "byteLength": 34480,
      "byteOffset": 260000,
      "byteStride": 16,
      "name": "floatBufferViews",
      "target": 34962
    }
  ],
  "buffers": [
    {
      "byteLength": 294480,
      "uri": "scene.bin"
    }
  ],
  "images": [
    {
      "uri": "textures/DefaultMaterial_baseColor.png"
    },
    {
      "uri": "textures/DefaultMaterial_metallicRoughness.png"
    },
    {
      "uri": "textures/DefaultMaterial_normal.png"
    }
  ],
  "materials": [
    {
      "doubleSided": true,
      "name": "DefaultMaterial",
      "normalTexture": {
        "index": 2
      },
      "pbrMetallicRoughness": {
        "baseColorTexture": {
          "index": 0
        },
        "metallicRoughnessTexture": {
          "index": 1
        }
      }
    }
  ],
  "meshes": [
    {
      "name": "Cube_DefaultMaterial_0",
      "primitives": [
        {
          "attributes": {
            "NORMAL": 1,
            "POSITION": 0,
            "TANGENT": 2,
            "TEXCOORD_0": 3,
            "TEXCOORD_1": 4,
            "TEXCOORD_2": 5,
            "TEXCOORD_3": 6,
            "TEXCOORD_4": 7,
            "TEXCOORD_5": 8,
            "TEXCOORD_6": 9,
            "TEXCOORD_7": 10,
            "TEXCOORD_8": 11,
            "TEXCOORD_9": 12
          },
          "indices": 13,
          "material": 0,
          "mode": 4
        }
      ]
    }
  ],
  "nodes": [
    {
      "children": [
        1
      ],
      "matrix": [
        1.0,
        0.0,
        0.0,
        0.0,
        0.0,
        2.220446049250313e-16,
        -1.0,
        0.0,
        0.0,
        1.0,
        2.220446049250313e-16,
        0.0,
        0.0,
        0.0,
        0.0,
        1.0
      ],
      "name": "Sketchfab_model"
    },
    {
      "children": [
        2
      ],
      "matrix": [
        1.0,
        0.0,
        0.0,
        0.0,
        0.0,
        0.0,
        1.0,
        0.0,
        0.0,
        -1.0,
        0.0,
        0.0,
        0.0,
        0.0,
        0.0,
        1.0
      ],
      "name": "backpack.fbx"
    },
    {
      "children": [
        3
      ],
      "name": "RootNode"
    },
    {
      "children": [
        4
      ],
      "matrix": [
        0.41298189759254456,
        0.0,
        0.0,
        0.0,
        0.0,
        -5.499186587789171e-08,
        -0.4129818975925409,
        0.0,
        0.0,
        0.4129818975925409,
        -5.499186587789171e-08,
        0.0,
        0.0,
        0.0,
        0.0,
        1.0
      ],
      "name": "Cube"
    },
    {
      "mesh": 0,
      "name": "Cube_DefaultMaterial_0"
    }
  ],
  "samplers": [
    {
      "magFilter": 9729,
      "minFilter": 9987,
      "wrapS": 10497,
      "wrapT": 10497
    }
  ],
  "scene": 0,
  "scenes": [
    {
      "name": "Sketchfab_Scene",
      "nodes": [
        0
      ]
    }
  ],
  "textures": [
    {
      "sampler": 0,
      "source": 0
    },
    {
      "sampler": 0,
      "source": 1
    },
    {
      "sampler": 0,
      "source": 2
    }
  ]
}
