{
  "accessors": [
    {
      "bufferView": 2,
      "componentType": 5126,
      "count": 339,
      "max": [
        25.056718826293945,
        0.8596312999725342,
        0.01976168155670166
      ],
      "min": [
        3.7780377864837646,
        -7.051045894622803,
        -0.688392162322998
      ],
      "type": "VEC3"
    },
    {
      "bufferView": 2,
      "byteOffset": 4068,
      "componentType": 5126,
      "count": 339,
      "max": [
        0.9989851713180542,
        1.0,
        1.0
      ],
      "min": [
        -1.0,
        -0.9996509552001953,
        -1.0
      ],
      "type": "VEC3"
    },
    {
      "bufferView": 3,
      "componentType": 5126,
      "count": 339,
      "max": [
        1.0,
        0.9804896712303162,
        0.005008990876376629,
        1.0
      ],
      "min": [
        -0.9996477365493774,
        -1.0,
        -0.006517802830785513,
        1.0
      ],
      "type": "VEC4"
    },
    {
      "bufferView": 1,
      "componentType": 5126,
      "count": 339,
      "max": [
        0.9927558302879333,
        0.8593401908874512
      ],
      "min": [
        0.13138554990291595,
        0.0005000000237487257
      ],
      "type": "VEC2"
    },
    {
      "bufferView": 0,
      "componentType": 5125,
      "count": 930,
      "type": "SCALAR"
    },
    {
      "bufferView": 2,
      "byteOffset": 8136,
      "componentType": 5126,
      "count": 993,
      "max": [
        3.6499850749969482,
        0.8988001346588135,
        -0.002542155096307397
      ],
      "min": [
        -18.02376937866211,
        -5.879654407501221,
        -0.6948584318161011
      ],
      "type": "VEC3"
    },
    {
      "bufferView": 2,
      "byteOffset": 20052,
      "componentType": 5126,
      "count": 993,
      "max": [
        0.999999463558197,
        0.9999178051948547,
        1.0
      ],
      "min": [
        -0.9660792946815491,
        -0.9996753931045532,
        -1.0
      ],
      "type": "VEC3"
    },
    {
      "bufferView": 3,
      "byteOffset": 5424,
      "componentType": 5126,
      "count": 993,
      "max": [
        1.0,
        0.9741930365562439,
        0.32208162546157837,
        1.0
      ],
      "min": [
        -0.9999178051948547,
        -0.9999998807907104,
        -0.3162449300289154,
        1.0
      ],
      "type": "VEC4"
    },
    {
      "bufferView": 1,
      "byteOffset": 2712,
      "componentType": 5126,
      "count": 993,
      "max": [
        0.9939482808113098,
        0.9988718628883362
      ],
      "min": [
        0.0005000000237487257,
        0.0005000000237487257
      ],
      "type": "VEC2"
    },
    {
      "bufferView": 0,
      "byteOffset": 3720,
      "componentType": 5125,
      "count": 3048,
      "type": "SCALAR"
    },
    {
      "bufferView": 2,
      "byteOffset": 31968,
      "componentType": 5126,
      "count": 208,
      "max": [
        0.4621216952800751,
        0.4621216654777527,
        1.0383356809616089
      ],
      "min": [
        -0.4621216356754303,
        -0.4621219038963318,
        -1.7339625358581543
      ],
      "type": "VEC3"
    },
    {
      "bufferView": 2,
      "byteOffset": 34464,
      "componentType": 5126,
      "count": 208,
      "max": [
        1.0,
        1.0,
        1.0
      ],
      "min": [
        -1.0,
        -1.0,
        -1.0
      ],
      "type": "VEC3"
    },
    {
      "bufferView": 3,
      "byteOffset": 21312,
      "componentType": 5126,
      "count": 208,
      "max": [
        1.0,
        1.0,
        0.013320996426045895,
        1.0
      ],
      "min": [
        -1.0,
        -1.0,
        -0.013323314487934113,
        -1.0
      ],
      "type": "VEC4"
    },
    {
      "bufferView": 1,
      "byteOffset": 10656,
      "componentType": 5126,
      "count": 208,
      "max": [
        0.43136656284332275,
        0.08926665037870407
      ],
      "min": [
        0.0005000014207325876,
        0.02667710743844509
      ],
      "type": "VEC2"
    },
    {
      "bufferView": 0,
      "byteOffset": 15912,
      "componentType": 5125,
      "count": 636,
      "type": "SCALAR"
    },
    {
      "bufferView": 2,
      "byteOffset": 36960,
      "componentType": 5126,
      "count": 816,
      "max": [
        25.085941314697266,
        0.8488478660583496,
        1.3382298946380615
      ],
      "min": [
        0.9431436657905579,
        -7.071722507476807,
        -2.0074291229248047
      ],
      "type": "VEC3"
    },
    {
      "bufferView": 2,
      "byteOffset": 46752,
      "componentType": 5126,
      "count": 816,
      "max": [
        0.9958451390266418,
        1.0,
        1.0
      ],
      "min": [
        -0.9996205568313599,
        -0.9997414350509644,
        -1.0
      ],
      "type": "VEC3"
    },
    {
      "bufferView": 3,
      "byteOffset": 24640,
      "componentType": 5126,
      "count": 816,
      "max": [
        1.0,
        0.9958420395851135,
        0.7598281502723694,
        1.0
      ],
      "min": [
        -1.0,
        -0.9996205568313599,
        -0.6937508583068848,
        -1.0
      ],
      "type": "VEC4"
    },
    {
      "bufferView": 1,
      "byteOffset": 12320,
      "componentType": 5126,
      "count": 816,
      "max": [
        0.994580090045929,
        0.999500036239624
      ],
      "min": [
        0.0005000074743293226,
        0.02667710743844509
      ],
      "type": "VEC2"
    },
    {
      "bufferView": 0,
      "byteOffset": 18456,
      "componentType": 5125,
      "count": 2772,
      "type": "SCALAR"
    }
  ],
  "asset": {
    "extras": {
      "author": "Veerle Zandstra (https://sketchfab.com/veerle_zandstra)",
      "license": "CC-BY-4.0 (http://creativecommons.org/licenses/by/4.0/)",
      "source": "https://sketchfab.com/3d-models/utility-knife-b56f12426f9d42b6bbbd35726ddd69a3",
      "title": "Utility Knife"
    },
    "generator": "Sketchfab-12.66.0",
    "version": "2.0"
  },
  "bufferViews": [
    {
      "buffer": 0,
      "byteLength": 29544,
      "name": "floatBufferViews",
      "target": 34963
    },
    {
      "buffer": 0,
      "byteLength": 18848,
      "byteOffset": 29544,
      "byteStride": 8,
      "name": "floatBufferViews",
      "target": 34962
    },
    {
      "buffer": 0,
      "byteLength": 56544,
      "byteOffset": 48392,
      "byteStride": 12,
      "name": "floatBufferViews",
      "target": 34962
    },
    {
      "buffer": 0,
      "byteLength": 37696,
      "byteOffset": 104936,
      "byteStride": 16,
      "name": "floatBufferViews",
      "target": 34962
    }
  ],
  "buffers": [
    {
      "byteLength": 142632,
      "uri": "scene.bin"
    }
  ],
  "images": [
    {
      "uri": "textures/Scene_-_Root_baseColor.jpeg"
    },
    {
      "uri": "textures/Scene_-_Root_metallicRoughness.png"
    },
    {
      "uri": "textures/Scene_-_Root_normal.png"
    }
  ],
  "materials": [
    {
      "doubleSided": true,
      "name": "Scene_-_Root",
      "normalTexture": {
        "index": 2
      },
      "occlusionTexture": {
        "index": 1
      },
      "pbrMetallicRoughness": {
        "baseColorTexture": {
          "index": 0
        },
        "metallicRoughnessTexture": {
          "index": 1
        }
      }
    }
  ],
  "meshes": [
    {
      "name": "middle_Lowpoly__0",
      "primitives": [
        {
          "attributes": {
            "NORMAL": 1,
            "POSITION": 0,
            "TANGENT": 2,
            "TEXCOORD_0": 3
          },
          "indices": 4,
          "material": 0,
          "mode": 4
        }
      ]
    },
    {
      "name": "blade_Lowpoly__0",
      "primitives": [
        {
          "attributes": {
            "NORMAL": 6,
            "POSITION": 5,
            "TANGENT": 7,
            "TEXCOORD_0": 8
          },
          "indices": 9,
          "material": 0,
          "mode": 4
        }
      ]
    },
    {
      "name": "cylinders_Lowpoly__0",
      "primitives": [
        {
          "attributes": {
            "NORMAL": 11,
            "POSITION": 10,
            "TANGENT": 12,
            "TEXCOORD_0": 13
          },
          "indices": 14,
          "material": 0,
          "mode": 4
        }
      ]
    },
    {
      "name": "grip_Lowpoly__0",
      "primitives": [
        {
          "attributes": {
            "NORMAL": 16,
            "POSITION": 15,
            "TANGENT": 17,
            "TEXCOORD_0": 18
          },
          "indices": 19,
          "material": 0,
          "mode": 4
        }
      ]
    }
  ],
  "nodes": [
    {
      "children": [
        1
      ],
      "matrix": [
        1.0,
        0.0,
        0.0,
        0.0,
        0.0,
        2.220446049250313e-16,
        -1.0,
        0.0,
        0.0,
        1.0,
        2.220446049250313e-16,
        0.0,
        0.0,
        0.0,
        0.0,
        1.0
      ],
      "name": "Sketchfab_model"
    },
    {
      "children": [
        2
      ],
      "matrix": [
        1.0,
        0.0,
        0.0,
        0.0,
        0.0,
        0.0,
        1.0,
        0.0,
        0.0,
        -1.0,
        0.0,
        0.0,
        0.0,
        0.0,
        0.0,
        1.0
      ],
      "name": "5ac35584d125470a8df0a76ffe64bc96.fbx"
    },
    {
      "children": [
        3,
        5,
        7,
        9
      ],
      "name": "RootNode"
    },
    {
      "children": [
        4
      ],
      "matrix": [
        1.0201549530029297,
        0.0,
        0.0,
        0.0,
        0.0,
        1.0201549530029161,
        1.66204343691176e-07,
        0.0,
        0.0,
        -1.6292068494294582e-07,
        0.9999999999999867,
        0.0,
        -3.9125850200653076,
        44.330684661865234,
        -1.4315452575683594,
        1.0
      ],
      "name": "middle_Lowpoly"
    },
    {
      "mesh": 0,
      "name": "middle_Lowpoly__0"
    },
    {
      "children": [
        6
      ],
      "matrix": [
        1.0201549530029297,
        0.0,
        0.0,
        0.0,
        0.0,
        1.0201549530029161,
        1.66204343691176e-07,
        0.0,
        0.0,
        -1.6292068494294582e-07,
        0.9999999999999867,
        0.0,
        -3.9125850200653076,
        44.330684661865234,
        -1.4315452575683594,
        1.0
      ],
      "name": "blade_Lowpoly"
    },
    {
      "mesh": 1,
      "name": "blade_Lowpoly__0"
    },
    {
      "children": [
        8
      ],
      "matrix": [
        0.9539430141448975,
        0.0,
        0.0,
        0.0,
        0.0,
        0.9539430141448848,
        1.5541704926102494e-07,
        0.0,
        0.0,
        -1.6292068494294582e-07,
        0.9999999999999867,
        0.0,
        -3.9125850200653076,
        44.330684661865234,
        -1.4315452575683594,
        1.0
      ],
      "name": "cylinders_Lowpoly"
    },
    {
      "mesh": 2,
      "name": "cylinders_Lowpoly__0"
    },
    {
      "children": [
        10
      ],
      "matrix": [
        1.0201549530029297,
        0.0,
        0.0,
        0.0,
        0.0,
        1.0201549530029161,
        1.66204343691176e-07,
        0.0,
        0.0,
        -1.6292068494294582e-07,
        0.9999999999999867,
        0.0,
        -3.9125850200653076,
        44.330684661865234,
        -1.4315452575683594,
        1.0
      ],
      "name": "grip_Lowpoly"
    },
    {
      "mesh": 3,
      "name": "grip_Lowpoly__0"
    }
  ],
  "samplers": [
    {
      "magFilter": 9729,
      "minFilter": 9987,
      "wrapS": 10497,
      "wrapT": 10497
    }
  ],
  "scene": 0,
  "scenes": [
    {
      "name": "Sketchfab_Scene",
      "nodes": [
        0
      ]
    }
  ],
  "textures": [
    {
      "sampler": 0,
      "source": 0
    },
    {
      "sampler": 0,
      "source": 1
    },
    {
      "sampler": 0,
      "source": 2
    }
  ]
}
